<?xml version="1.0" encoding="UTF-8" standalone="no"?><!DOCTYPE svg PUBLIC "-//W3C//DTD SVG 1.1//EN" "http://www.w3.org/Graphics/SVG/1.1/DTD/svg11.dtd"><svg width="100%" height="100%" viewBox="0 0 213 213" version="1.1" xmlns="http://www.w3.org/2000/svg" xmlns:xlink="http://www.w3.org/1999/xlink" xml:space="preserve" xmlns:serif="http://www.serif.com/" style="fill-rule:evenodd;clip-rule:evenodd;stroke-linecap:round;stroke-linejoin:round;stroke-miterlimit:1.5;"><path d="M212.598,53.15c0,-29.334 -23.815,-53.15 -53.149,-53.15l-106.299,0c-29.334,0 -53.15,23.816 -53.15,53.15l-0,106.299c-0,29.334 23.816,53.149 53.15,53.149l106.299,0c29.334,0 53.149,-23.815 53.149,-53.149l0,-106.299Z" style="fill:#800c10;"/><g><path d="M162.372,73.571l-54.904,-35.656l1.413,-2.177l54.905,35.656l-1.414,2.177Z" style="fill:#ffbc84;stroke:#ada884;stroke-width:3.33px;"/><path d="M50.11,92.51l0,41.024l-2.595,0l-0,-41.024l2.595,-0Z" style="fill:#ffbc84;stroke:#ada884;stroke-width:3.33px;"/><path d="M51.524,140.127l54.905,35.655l-1.414,2.177l-54.905,-35.656l1.414,-2.176Z" style="fill:#ffbc84;stroke:#ada884;stroke-width:3.33px;"/><path d="M50.226,73.571l54.905,-35.656l-1.414,-2.177l-54.904,35.656l1.413,2.177Z" style="fill:#ffbc84;stroke:#ada884;stroke-width:3.33px;"/><path d="M162.488,92.51l0,47.617l2.596,-0l-0,-47.617l-2.596,-0Z" style="fill:#ffbc84;stroke:#ada884;stroke-width:3.33px;"/><path d="M163.079,138.825l-56.867,36.93l1.414,2.176l56.867,-36.929l-1.414,-2.177Z" style="fill:#ffbc84;stroke:#ada884;stroke-width:3.33px;"/><circle cx="48.813" cy="139.028" r="19.465" style="fill:#800c10;stroke:#ada884;stroke-width:6.25px;"/><circle cx="106.17" cy="176.843" r="19.465" style="fill:#800c10;stroke:#ada884;stroke-width:6.25px;"/><circle cx="48.813" cy="73.571" r="19.465" style="fill:#800c10;stroke:#ada884;stroke-width:6.25px;"/><circle cx="106.17" cy="35.755" r="19.465" style="fill:#800c10;stroke:#ada884;stroke-width:6.25px;"/><circle cx="163.786" cy="73.571" r="19.465" style="fill:#800c10;stroke:#ada884;stroke-width:6.25px;"/><circle cx="163.786" cy="139.028" r="19.465" style="fill:#ada884;stroke:#ada884;stroke-width:6.25px;"/></g></svg>