<?xml version="1.0" encoding="UTF-8" standalone="no"?><!DOCTYPE svg PUBLIC "-//W3C//DTD SVG 1.1//EN" "http://www.w3.org/Graphics/SVG/1.1/DTD/svg11.dtd"><svg width="100%" height="100%" viewBox="0 0 2126 296" version="1.1" xmlns="http://www.w3.org/2000/svg" xmlns:xlink="http://www.w3.org/1999/xlink" xml:space="preserve" xmlns:serif="http://www.serif.com/" style="fill-rule:evenodd;clip-rule:evenodd;stroke-linecap:round;stroke-linejoin:round;stroke-miterlimit:1.5;"><path d="M2125.98,14.764c0,-8.149 -6.615,-14.764 -14.764,-14.764l-2096.46,-0c-8.149,-0 -14.764,6.615 -14.764,14.764l-0,265.748c-0,8.148 6.615,14.764 14.764,14.764l2096.46,-0c8.149,-0 14.764,-6.616 14.764,-14.764l0,-265.748Z" style="fill:#800c10;"/><g><text x="660.852px" y="206.925px" style="font-family:'LucidaGrande', 'Lucida Grande', sans-serif;font-weight:500;font-size:182.695px;fill:#fffbfb;">RegioSelect</text><g><path d="M592.355,108.254l-54.905,-35.656l1.414,-2.176l54.904,35.655l-1.413,2.177Z" style="fill:#ffbc84;stroke:#ada884;stroke-width:3.33px;"/><path d="M480.093,127.193l-0,41.025l-2.596,-0l0,-41.025l2.596,0Z" style="fill:#ffbc84;stroke:#ada884;stroke-width:3.33px;"/><path d="M481.506,174.81l54.905,35.655l-1.414,2.177l-54.904,-35.655l1.413,-2.177Z" style="fill:#ffbc84;stroke:#ada884;stroke-width:3.33px;"/><path d="M480.209,108.254l54.904,-35.656l-1.413,-2.176l-54.905,35.655l1.414,2.177Z" style="fill:#ffbc84;stroke:#ada884;stroke-width:3.33px;"/><path d="M592.471,127.193l-0,47.617l2.595,-0l-0,-47.617l-2.595,0Z" style="fill:#ffbc84;stroke:#ada884;stroke-width:3.33px;"/><path d="M593.062,173.508l-56.867,36.93l1.413,2.177l56.867,-36.93l-1.413,-2.177Z" style="fill:#ffbc84;stroke:#ada884;stroke-width:3.33px;"/><circle cx="478.795" cy="173.711" r="19.465" style="fill:#800c10;stroke:#ada884;stroke-width:6.25px;"/><circle cx="536.152" cy="211.526" r="19.465" style="fill:#800c10;stroke:#ada884;stroke-width:6.25px;"/><circle cx="478.795" cy="108.254" r="19.465" style="fill:#800c10;stroke:#ada884;stroke-width:6.25px;"/><circle cx="593.768" cy="173.711" r="19.465" style="fill:#ada884;stroke:#ada884;stroke-width:6.25px;"/><circle cx="536.152" cy="70.439" r="19.465" style="fill:#800c10;stroke:#ada884;stroke-width:6.25px;"/><circle cx="593.768" cy="108.254" r="19.465" style="fill:#800c10;stroke:#ada884;stroke-width:6.25px;"/></g></g></svg>